<?xml version="1.0" encoding="utf-8"?>
<!-- Generator: Adobe Illustrator 16.0.0, SVG Export Plug-In . SVG Version: 6.00 Build 0)  -->
<!DOCTYPE svg PUBLIC "-//W3C//DTD SVG 1.1//EN" "http://www.w3.org/Graphics/SVG/1.1/DTD/svg11.dtd">
<svg version="1.1" id="Capa_1" xmlns="http://www.w3.org/2000/svg" xmlns:xlink="http://www.w3.org/1999/xlink" x="0px" y="0px"
	 width="110px" height="60px" viewBox="0 0 110 60" enable-background="new 0 0 110 60" xml:space="preserve">
<g>
	<defs>
		<path id="SVGID_1_" d="M51.013,22.632c0.476,0,2.135-0.328,2.135,0.249c0,0.941,0,1.881,0,2.823c0,3.249,0,6.497,0,9.745
			c0,1.257,0,2.513,0,3.769c0,0.299,0,0.599,0,0.898c0,0.313-0.425,0.153-0.676,0.153c-0.116,0-1.459,0.013-1.459-0.014
			c0-0.219,0-0.438,0-0.657c0-1.141,0-2.281,0-3.421C51.013,31.663,51.013,27.147,51.013,22.632z M64.967,37.387
			c0,0.96,0.029,1.93,0.169,2.883c-0.608,0-1.216,0-1.824,0c-0.219,0-0.255-1.262-0.286-1.517c-0.312,0.155-0.6,0.644-0.912,0.884
			c-0.529,0.403-1.149,0.678-1.797,0.81c-1.274,0.26-2.719,0.016-3.646-0.979c-1.469-1.58-1.06-4.216,0.585-5.475
			c0.894-0.686,2.008-1.021,3.098-1.198c0.709-0.116,1.426-0.166,2.141-0.177c0.497-0.006,0.358-0.377,0.303-0.828
			c-0.354-2.845-3.915-2.556-5.718-1.309c-0.159-0.479-0.316-0.958-0.477-1.437c-0.139-0.418,2.84-1.009,3.14-1.037
			c1.938-0.179,3.972,0.367,4.787,2.341C65.383,32.413,64.967,35.202,64.967,37.387z M62.879,34.133
			c-1.397-0.03-3.222,0.008-4.31,1.053c-1.003,0.964-0.906,3.014,0.463,3.58c1.463,0.605,3.257-0.37,3.75-1.85
			C63.051,36.087,62.879,34.991,62.879,34.133z M76.76,39.847c-2.089,1.022-5.001,1.023-6.924-0.38
			c-2.025-1.478-2.645-4.287-2.134-6.679c0.498-2.341,2.23-4.118,4.516-4.638c1.361-0.311,2.876-0.241,4.181,0.277
			c0.513,0.204,0.393,0.253,0.251,0.74c-0.108,0.371-0.218,0.743-0.325,1.115c-3.167-1.698-6.626,0.384-6.626,3.999
			c0,3.831,3.522,5.356,6.699,3.926C76.518,38.753,76.64,39.3,76.76,39.847z M81.396,33.761c0.579-0.532,1.072-1.373,1.609-2.016
			c0.649-0.776,1.3-1.553,1.951-2.33c0.185-0.223,0.747-1.169,1.058-1.169c0.821,0,1.645,0,2.467,0
			c-0.89,0.971-1.782,1.944-2.674,2.915c-0.374,0.406-2.08,1.732-1.696,2.256c1.667,2.284,3.335,4.569,5.003,6.854
			c-0.842,0-1.683,0-2.524,0c-0.283,0-0.83-1.09-0.983-1.308c-1.039-1.493-2.081-2.987-3.117-4.481
			c-0.359,0.416-0.717,0.83-1.075,1.247c-0.168,0.194-0.018,1.132-0.018,1.379c0,0.779,0,1.557,0,2.337
			c0,0.504,0.192,0.826-0.334,0.826c-0.289,0-1.609,0.195-1.804,0c-0.05-0.056,0-0.438,0-0.509c0-1.078,0-2.156,0-3.234
			c0-3.268,0-6.535,0-9.804c0-1.14,0-2.28,0-3.421c0-0.213,0-0.427,0-0.641c0-0.062,1.325-0.029,1.461-0.029
			c0.892,0,0.677,0.132,0.677,1.003c0,1.28,0,2.561,0,3.841C81.396,29.571,81.396,31.667,81.396,33.761z M92.023,34.63
			c0.067,4.125,4.088,4.896,7.255,3.577c0.072,0.282,0.51,1.304,0.391,1.541c-1.005,0.464-2.116,0.682-3.213,0.747
			c-2.131,0.129-4.293-0.479-5.522-2.389c-2.313-3.601-0.527-9.714,4.018-10.134c2.071-0.192,3.935,0.759,4.794,2.73
			c0.228,0.521,1.129,3.956,0.289,3.953c-2.597-0.009-5.195-0.017-7.795-0.024C92.169,34.631,92.095,34.63,92.023,34.63z
			 M98.262,33.065c0.03-1.695-0.849-3.398-2.65-3.542c-2.055-0.164-3.347,1.613-3.563,3.542
			C94.12,33.065,96.191,33.065,98.262,33.065z M102.992,31.996c0-1.25-0.016-2.502-0.099-3.75c0.266,0,1.867-0.101,1.873,0.081
			c0.031,0.76,0.063,1.521,0.095,2.279c0.361-0.344,0.562-1.105,0.966-1.542c0.558-0.601,1.307-1.006,2.117-1.08
			c0.858-0.076,0.849,0.036,0.849,0.78c0,0.44,0,0.88,0,1.32c-1.992-0.204-3.457,0.974-3.657,3.063
			c-0.101,1.055-0.032,2.146-0.032,3.206c0,1.208,0,2.42,0,3.629c0,0.617-1.617,0.287-2.137,0.287
			C102.975,37.511,102.984,34.754,102.992,31.996z"/>
	</defs>
	<use xlink:href="#SVGID_1_"  overflow="visible" fill="#EDEDED"/>
	<clipPath id="SVGID_2_">
		<use xlink:href="#SVGID_1_"  overflow="visible"/>
	</clipPath>
	<use xlink:href="#SVGID_1_"  overflow="visible" fill="none" stroke="#F6F6F6" stroke-miterlimit="10"/>
</g>
<path fill="none" stroke="#878787" stroke-width="5" stroke-miterlimit="10" d="M45.572,30.781c0,9.389-6.603,17.476-15.297,20.002
	c-8.902,2.587-18.95-0.806-24.184-8.717C0.957,34.304,1.839,23.83,8.045,16.981C14.402,9.968,24.877,8,33.349,11.933
	C40.544,15.273,45.572,22.612,45.572,30.781z"/>
<g>
	<path fill="#9D9D9C" stroke="#878787" stroke-miterlimit="10" d="M20.521,5.557c0,4.656,0,9.313,0,13.968c0,2.74,0,5.478,0,8.217
		c0,2.142-0.202,4.683,1.19,6.379c1.928,2.348,6.031,1.224,6.877-1.742c0.515-1.806-0.2-3.776-1.637-4.771
		c-1.575-1.089-3.332-0.62-4.806,0.412c0-2.311,0-4.622,0-6.935c0-1.385,0-2.771,0-4.158c0-0.307,0-0.614,0-0.921
		c0-0.185,2.15-0.229,2.464-0.238c4.766-0.134,9.266,2.159,12.214,6.307c2.803,3.944,3.52,9.443,1.902,14.128
		c-3.648,10.561-17.087,13.047-24.438,5.765c-3.134-3.104-4.412-7.571-4.412-12.117c0-1.792,0-3.582,0-5.374
		c0-5.828,0-11.656,0-17.485c0-0.476,0-0.952,0-1.426c0-0.019,1.695-0.009,1.802-0.009c2.674,0,5.348,0,8.021,0
		C19.972,5.557,20.247,5.557,20.521,5.557z"/>
</g>
</svg>
